{"asset":{"version":"2.0","generator":"Obsession anatomical Yani ear generator"},"scene":0,"scenes":[{"nodes":[0,1,2,3]}],"nodes":[{"name":"YaniEarFront","mesh":0},{"name":"YaniEarBack","mesh":1},{"name":"YaniEarRim","mesh":2},{"name":"YaniEarFold","mesh":3}],"meshes":[{"name":"YaniEarFront","primitives":[{"attributes":{"POSITION":0,"NORMAL":1,"TEXCOORD_0":2},"indices":3,"mode":4}]},{"name":"YaniEarBack","primitives":[{"attributes":{"POSITION":4,"NORMAL":5,"TEXCOORD_0":6},"indices":7,"mode":4}]},{"name":"YaniEarRim","primitives":[{"attributes":{"POSITION":8,"NORMAL":9,"TEXCOORD_0":10},"indices":11,"mode":4}]},{"name":"YaniEarFold","primitives":[{"attributes":{"POSITION":12,"NORMAL":13,"TEXCOORD_0":14},"indices":15,"mode":4}]}],"buffers":[{"byteLength":305088,"uri":"data:application/octet-stream;base64,"}],"bufferViews":[{"buffer":0,"byteOffset":0,"byteLength":38220,"target":34962},{"buffer":0,"byteOffset":38220,"byteLength":38220,"target":34962},{"buffer":0,"byteOffset":76440,"byteLength":25480,"target":34962},{"buffer":0,"byteOffset":101920,"byteLength":36864,"target":34963},{"buffer":0,"byteOffset":138784,"byteLength":38220,"target":34962},{"buffer":0,"byteOffset":177004,"byteLength":38220,"target":34962},{"buffer":0,"byteOffset":215224,"byteLength":25480,"target":34962},{"buffer":0,"byteOffset":240704,"byteLength":36864,"target":34963},{"buffer":0,"byteOffset":277568,"byteLength":5376,"target":34962},{"buffer":0,"byteOffset":282944,"byteLength":5376,"target":34962},{"buffer":0,"byteOffset":288320,"byteLength":3584,"target":34962},{"buffer":0,"byteOffset":291904,"byteLength":2688,"target":34963},{"buffer":0,"byteOffset":294592,"byteLength":2964,"target":34962},{"buffer":0,"byteOffset":297556,"byteLength":2964,"target":34962},{"buffer":0,"byteOffset":300520,"byteLength":1976,"target":34962},{"buffer":0,"byteOffset":302496,"byteLength":2592,"target":34963}],"accessors":[{"bufferView":0,"componentType":5126,"count":3185,"type":"VEC3","min":[-0.5600000023841858,-0.5879999995231628,-0.19795194268226624],"max":[0.4300000071525574,0.921999990940094,0.1340000033378601]},{"bufferView":1,"componentType":5126,"count":3185,"type":"VEC3"},{"bufferView":2,"componentType":5126,"count":3185,"type":"VEC2","min":[0,0],"max":[1,1]},{"bufferView":3,"componentType":5123,"count":18432,"type":"SCALAR","min":[0],"max":[3184]},{"bufferView":4,"componentType":5126,"count":3185,"type":"VEC3","min":[-0.5688765645027161,-0.6129578351974487,-0.2306891828775406],"max":[0.4413619339466095,0.9251840710639954,0.11246621608734131]},{"bufferView":5,"componentType":5126,"count":3185,"type":"VEC3"},{"bufferView":6,"componentType":5126,"count":3185,"type":"VEC2","min":[0,0],"max":[1,1]},{"bufferView":7,"componentType":5123,"count":18432,"type":"SCALAR","min":[0],"max":[3184]},{"bufferView":8,"componentType":5126,"count":448,"type":"VEC3","min":[-0.5688765645027161,-0.6129578351974487,-0.03618922829627991],"max":[0.4413619339466095,0.9251840710639954,0.1340000033378601]},{"bufferView":9,"componentType":5126,"count":448,"type":"VEC3"},{"bufferView":10,"componentType":5126,"count":448,"type":"VEC2","min":[0,0],"max":[1,1]},{"bufferView":11,"componentType":5123,"count":1344,"type":"SCALAR","min":[0],"max":[447]},{"bufferView":12,"componentType":5126,"count":247,"type":"VEC3","min":[-0.5276187658309937,-0.44328078627586365,-0.07656760513782501],"max":[-0.07240165024995804,0.008105500601232052,0.12254558503627777]},{"bufferView":13,"componentType":5126,"count":247,"type":"VEC3"},{"bufferView":14,"componentType":5126,"count":247,"type":"VEC2","min":[0,0],"max":[1,1]},{"bufferView":15,"componentType":5123,"count":1296,"type":"SCALAR","min":[0],"max":[246]}],"extras":{"license":"Original procedural asset for Obsession / Yani Neko","topology":"low outward anime wedge with physical thickness and a separate basal cartilage fold","rows":64,"columns":48}}
